<?xml version="1.0" encoding="UTF-8" standalone="no"?>
<!-- Created by diasvg.py -->
<svg width="12.085cm" height="13.610cm" viewBox="1.450 5.550 12.085 13.610"
 xmlns="http://www.w3.org/2000/svg"
 xmlns:xlink="http://www.w3.org/1999/xlink">
<!-- Layer: Background -->
<g id="Background">
<!-- Circuit - Vertical Led (European) -->
<line x1="12.150" y1="13.457" x2="13.350" y2="13.457" stroke="#000000" stroke-width="0.300" />
<polygon fill="#FFFFFF" stroke="#000000" stroke-width="0.100"  points="12.750,13.457 12.150,12.543 13.350,12.543 "/>
<line x1="12.750" y1="14.500" x2="12.750" y2="11.500" stroke="#000000" stroke-width="0.100" />
<line x1="12.150" y1="12.778" x2="11.850" y2="13.300" stroke="#000000" stroke-width="0.100" />
<polygon fill="#000000" stroke="#000000" stroke-width="0.100"  points="11.850,13.133 11.850,13.300 11.970,13.300 "/>
<line x1="12.270" y1="13.039" x2="11.970" y2="13.561" stroke="#000000" stroke-width="0.100" />
<polygon fill="#000000" stroke="#000000" stroke-width="0.100"  points="11.970,13.394 11.970,13.561 12.090,13.561 "/>
<!-- Circuit - Horizontal Resistor -->
<polyline fill="none" stroke="#000000" stroke-width="0.100"  points="5.900,18.150 6.800,18.150 6.900,17.650 7.100,18.650 7.300,17.650 7.500,18.650 7.700,17.650 7.900,18.650 8.000,18.150 8.900,18.150 "/>
<!-- Electronic - button -->
<ellipse cx="6.850" cy="7.150" rx="0.400" ry="0.400" fill="#FFFFFF" stroke="#000000"  stroke-width="0.100" />
<ellipse cx="9.250" cy="7.150" rx="0.400" ry="0.400" fill="#FFFFFF" stroke="#000000"  stroke-width="0.100" />
<line x1="6.450" y1="7.150" x2="5.250" y2="7.150" stroke="#000000" stroke-width="0.100" />
<line x1="9.650" y1="7.150" x2="10.850" y2="7.150" stroke="#000000" stroke-width="0.100" />
<line x1="6.450" y1="6.350" x2="9.650" y2="6.350" stroke="#000000" stroke-width="0.100" />
<line x1="8.050" y1="6.350" x2="8.050" y2="5.550" stroke="#000000" stroke-width="0.100" />
<!-- Group -->
<!-- Electrical - DC h -->
<polygon fill="#FFFFFF" stroke="#000000" stroke-width="0.100"  stroke-linejoin="round" stroke-linecap="round" points="2.260,12.713 3.040,12.713 3.040,12.687 2.260,12.687 "/>
<!-- Standard - Text -->
<text x="2.800" y="12.300"  fill="#000000" text-anchor="start" font-size="0.80" font-family="sans" font-style="normal" font-weight="400">
+</text>
<!-- Standard - PolyLine -->
<polyline fill="none" stroke="#000000" stroke-width="0.100"  points="2.600,12.650 2.600,7.150 5.250,7.150 "/>
<!-- Standard - PolyLine -->
<polyline fill="none" stroke="#000000" stroke-width="0.100"  points="10.850,7.150 12.762,7.163 12.750,11.500 "/>
<!-- Standard - PolyLine -->
<polyline fill="none" stroke="#000000" stroke-width="0.100"  points="12.750,14.500 12.700,18.150 8.900,18.150 "/>
<!-- Standard - BezierLine -->
<path stroke="#000000" fill="none" stroke-width="0.100"  d="M 2.650,14.313 C 2.654,15.596 2.658,16.879 2.662,18.163 C 3.742,18.158 4.821,18.154 5.900,18.150 "/>
<!-- Standard - Text -->
<text x="1.450" y="13.700"  fill="#000000" text-anchor="start" font-size="0.80" font-family="sans" font-style="normal" font-weight="400">
Battery</text>
<!-- Standard - Text -->
<!-- Standard - Text -->
<text x="6.175" y="8.312"  fill="#000000" text-anchor="start" font-size="0.80" font-family="sans" font-style="normal" font-weight="400">
Push Button</text>
<!-- Standard - Text -->
<text x="10.925" y="14.363"  fill="#000000" text-anchor="start" font-size="0.80" font-family="sans" font-style="normal" font-weight="400">
LED</text>
<!-- Standard - Text -->
<text x="5.188" y="17.062"  fill="#000000" text-anchor="start" font-size="0.80" font-family="sans" font-style="normal" font-weight="400">
220 Ω resistor</text>
<!-- Standard - Text -->
<!-- Standard - Text -->
<!-- Electrical - DC h -->
<polygon fill="#FFFFFF" stroke="#000000" stroke-width="0.100"  stroke-linejoin="round" stroke-linecap="round" points="2.348,14.307 2.940,14.307 2.940,14.287 2.348,14.287 "/>
</g>
</svg>